<?xml version="1.0" encoding="utf-8"?>
<!-- Generator: Adobe Illustrator 19.2.0, SVG Export Plug-In . SVG Version: 6.00 Build 0)  -->
<svg version="1.1" id="Layer_1" xmlns="http://www.w3.org/2000/svg" xmlns:xlink="http://www.w3.org/1999/xlink" x="0px" y="0px"
	 viewBox="0 0 151 39" style="enable-background:new 0 0 151 39;" xml:space="preserve">
<style type="text/css">
	.st0{fill:#A39FA1;}
	.st1{clip-path:url(#SVGID_2_);}
	.st2{clip-path:url(#SVGID_4_);}
	.st3{fill:none;stroke:#A39FA1;stroke-width:0.8;stroke-miterlimit:10;}
</style>
<title>Yrityksille_logo_deskari</title>
<path class="st0" d="M38.3,38.7v-3.2l-3-4.4h1.1l2.3,3.5l2.3-3.5h1.1l-3,4.3v3.2h-0.8V38.7z"/>
<path class="st0" d="M49,38.7l-1.9-3h-1.5v3h-1v-7.5h3c1.2-0.1,2.3,0.8,2.4,2c0,0.1,0,0.2,0,0.3c0.1,1.1-0.8,2.1-2,2.2l0,0l2,3.1
	C50,38.7,49,38.7,49,38.7z M49,33.4c0-0.8-0.6-1.4-1.4-1.4h-0.1h-2v2.9h2c0.8,0,1.4-0.6,1.5-1.3C49,33.5,49,33.5,49,33.4z"/>
<path class="st0" d="M53.2,38.7v-7.5h0.9v7.5H53.2z"/>
<path class="st0" d="M59.5,38.7V32h-2.4v-0.8h5.7V32h-2.4v6.7H59.5z"/>
<path class="st0" d="M68.1,38.7v-3.2l-3-4.4h1.1l2.3,3.5l2.3-3.5H72l-3,4.3v3.2h-0.9V38.7z"/>
<path class="st0" d="M79.2,38.7l-2.9-3.4l-0.8,0.9v2.5h-0.9v-7.5h0.9v3.9l3.3-3.9H80l-3,3.5l3.4,4H79.2L79.2,38.7z"/>
<path class="st0" d="M82.7,37.6l0.6-0.7c0.6,0.7,1.5,1.1,2.4,1.1c1.3,0,1.8-0.7,1.8-1.3c0-1.9-4.5-0.9-4.5-3.6
	c0-1.2,1.1-2.1,2.6-2.1c1,0,2,0.4,2.7,1.1l-0.6,0.7c-0.6-0.6-1.4-0.9-2.2-0.9c-0.7-0.1-1.4,0.4-1.5,1.1c0,0,0,0,0,0.1
	c0,1.7,4.5,0.7,4.5,3.5c0,1.1-0.8,2.2-2.8,2.2C84.5,38.9,83.4,38.5,82.7,37.6z"/>
<path class="st0" d="M91.5,38.7v-7.5h0.9v7.5H91.5z"/>
<path class="st0" d="M95.9,38.7v-7.5h0.9v6.7h3.5v0.8H95.9z"/>
<path class="st0" d="M103.3,38.7v-7.5h0.9v6.7h3.5v0.8H103.3L103.3,38.7z"/>
<path class="st0" d="M110.8,38.7v-7.5h4.9V32h-4v2.4h3.9v0.8h-3.9v2.6h4v0.8h-4.9V38.7z"/>
<g>
	<g>
		<defs>
			<rect id="SVGID_1_" width="149.9" height="19.1"/>
		</defs>
		<clipPath id="SVGID_2_">
			<use xlink:href="#SVGID_1_"  style="overflow:visible;"/>
		</clipPath>
		<g class="st1">
			<path class="st0" d="M8.1,16.1c2.7,0.1,5-2,5.1-4.7c0-0.1,0-0.2,0-0.3c0.1-2.7-2.1-4.9-4.8-5c-0.1,0-0.2,0-0.3,0
				c-2.7-0.1-4.9,2-5,4.7c0,0.1,0,0.2,0,0.3c-0.1,2.7,2,4.9,4.7,5C7.9,16.1,8,16.1,8.1,16.1 M0,10.2C0.1,9.8,0.2,9.4,0.3,9
				C1,5.9,3.5,3.6,6.7,3.2c2.8-0.5,5.7,0.4,7.6,2.6c1.1,1.3,1.8,2.9,1.9,4.6c0.3,2.3-0.5,4.5-2,6.2c-1.3,1.4-3.1,2.3-5,2.5
				c-2.1,0.3-4.3-0.3-6-1.6c-1.7-1.3-2.8-3.2-3-5.3c0-0.1-0.1-0.2-0.1-0.2L0,10.2L0,10.2z"/>
			<path class="st0" d="M120.4,17.1c3.3,0,6-2.6,6-5.9v-0.1c0-3.3-2.7-6-6-6c0,0,0,0-0.1,0c-3.2,0-5.9,2.6-5.9,5.8
				c0,0.1,0,0.1,0,0.2c-0.1,3.2,2.5,5.9,5.7,6C120.2,17.1,120.3,17.1,120.4,17.1 M128.4,0c0,0.1,0,0.3,0,0.4v18.3h-2v-2.4
				c-1.8,2.1-4.6,3.2-7.3,2.7c-2-0.2-3.9-1.3-5.1-2.9c-2.6-3.3-2.2-8.1,0.8-11c3.3-3,8.4-2.8,11.5,0.6l0.1,0.1V5.5
				c0-1.7,0-3.4,0-5.1c0-0.1,0-0.2,0-0.4L128.4,0L128.4,0z"/>
			<path class="st0" d="M20.7,0v3.4h5.1v2.9h-5.1v0.8c0,1.5,0,3.1,0,4.6c0,0.7,0.1,1.3,0.3,2c0.3,1.2,1.3,2,2.5,2.1
				c0.7,0.1,1.5,0.1,2.2-0.1h0.2v1.6c0,0.4,0,0.7,0,1.1c0,0.1-0.1,0.2-0.2,0.2C23.9,19,22,18.8,20.4,18c-1.5-0.8-2.5-2.3-2.7-4
				c-0.1-0.7-0.1-1.3-0.1-2c0-4,0-8,0-12H20.7z"/>
		</g>
	</g>
</g>
<rect x="131.4" class="st0" width="2" height="1.9"/>
<g>
	<g>
		<defs>
			<rect id="SVGID_3_" x="1" width="149.9" height="19.1"/>
		</defs>
		<clipPath id="SVGID_4_">
			<use xlink:href="#SVGID_3_"  style="overflow:visible;"/>
		</clipPath>
		<g class="st2">
			<path class="st0" d="M71.7,11.1c0-2.8-2.2-5.1-5-5.1c-2.8,0-5.1,2.2-5.1,5s2.2,5.1,5,5.1C69.4,16.1,71.7,13.9,71.7,11.1
				 M74.8,18.7h-3.2v-1.4l-0.2,0.1c-1.6,1.4-3.7,2-5.8,1.7c-3.8-0.3-6.8-3.4-7-7.2c-0.2-2,0.3-4,1.4-5.6c1.2-1.6,3-2.7,5-3
				c1.9-0.4,3.8,0,5.4,1c0.2,0.1,0.3,0.2,0.5,0.4L71.5,5V3.5h3.2L74.8,18.7L74.8,18.7z"/>
			<path class="st0" d="M40.1,11.1C40.1,8.3,37.8,6,35,6s-5.1,2.3-5.1,5.1l0,0c0,2.8,2.3,5.1,5.1,5.1S40.1,13.9,40.1,11.1L40.1,11.1
				 M39.9,4.9V3.4h3.2v15.3h-3.2v-1.5l-0.2,0.2C38.1,18.7,36,19.3,34,19c-4.2-0.3-7.3-3.9-7.1-8.1c0-2.2,0.9-4.3,2.5-5.8
				c1.3-1.2,3-1.9,4.8-2.1c1.8-0.2,3.7,0.3,5.2,1.4l0.3,0.2L39.9,4.9"/>
			<path class="st0" d="M98.5,9.8h11.7c0-2.3-2.8-4.6-5.7-4.7C101.6,4.9,99,6.9,98.5,9.8 M112.4,11.8h-14c0.1,1,0.4,1.9,0.9,2.7
				c1.2,1.8,3.2,2.8,5.3,2.6c2.2,0,4.2-1.4,5.1-3.4c0-0.1,0.1-0.2,0.2-0.2c0.7,0,1.4,0,2.1,0c-1.4,4.2-6,6.6-10.2,5.2
				c-3.6-1.2-5.9-4.8-5.5-8.6c0.4-4.3,4.3-7.5,8.6-7c0.2,0,0.4,0,0.6,0.1C109.8,3.7,112.9,7.5,112.4,11.8"/>
			<path class="st0" d="M149,11.1c0-3.3-2.7-6-6-6s-6,2.7-6,6s2.7,6,6,6S149,14.4,149,11.1 M149,5.8V3.5h2v15.3h-2v-2.4
				c-1.5,1.9-3.9,2.9-6.3,2.8c-2.4,0-4.7-1.2-6.1-3.1c-2.4-3.3-2.1-7.9,0.8-10.8C140.1,2.6,145.7,1.9,149,5.8"/>
			<path class="st0" d="M43.8,3.4c1.1,0,2.2,0,3.2,0c0.2,0,0.3,0.1,0.3,0.3l3.4,8.1l0.8,1.9l0.2,0.3l0.9-2.1
				c1.2-2.7,2.3-5.5,3.5-8.3c0.1-0.2,0.3-0.3,0.5-0.3c0.9,0,1.8,0,2.7,0h0.3l-0.4,1.1c-2,4.7-3.9,9.3-5.9,14c0,0.2-0.2,0.3-0.4,0.3
				c-0.8,0-1.6,0-2.3,0c-0.2,0-0.3-0.1-0.4-0.2c-2.1-5-4.2-9.9-6.3-14.9L43.8,3.4"/>
			<path class="st0" d="M84.2,5.7c0.9-1.4,2.4-2.3,4-2.6c2.2-0.5,4.6,0.4,5.9,2.2c0.7,0.9,1,2,1,3.1c0.1,3.1,0.1,6.2,0.1,9.2
				c0,0.3,0,0.6,0,1h-2c0-0.1,0-0.3,0-0.4c0-3.1,0-6.2,0-9.4c0.1-2.1-1.6-3.9-3.7-3.9c-0.2,0-0.5,0-0.7,0C87,5,85.5,6.2,85.2,8
				c-0.1,0.7-0.2,1.4-0.1,2.1c0,2.7,0,5.4,0,8.1v0.4h-2v-0.4c0-2.9,0-5.8,0-8.6c0-0.8-0.1-1.6-0.3-2.3c-0.4-1.3-1.6-2.2-3-2.3
				C78.4,5,77,5.4,76,6.4c0-0.5,0-1,0-1.5c-0.1-0.5,0.2-1,0.7-1.2c2.5-1.3,5.7-0.5,7.3,1.9L84.2,5.7"/>
			<path class="st0" d="M131.5,3.4h2v0.3c0,4.9,0,9.7,0,14.6c0,0.3-0.1,0.4-0.4,0.4c-0.5,0-1.1,0-1.6,0V3.4z"/>
		</g>
	</g>
</g>
<path class="st3" d="M0,34.8h24.9"/>
<path class="st3" d="M126.1,34.8H151"/>
</svg>
